<svg xmlns="http://www.w3.org/2000/svg" width="111" height="68" preserveAspectRatio="xMidYMid" version="1.0" viewBox="0 -7 243.664 150"><defs><clipPath id="a"><path d="M65.652 167.344h243.696v40.312H65.652Zm0 0"/></clipPath></defs><path d="M65.811 104.606H308.79v162.488H65.811z" style="fill:none;stroke-width:.779524" transform="matrix(1.0016 0 0 .92317 -65.757 -103.5)"/><g fill="currentcolor"><path d="M91.8 101.95c0 6.152-3.809 11.816-10.352 11.816-6.64 0-10.45-5.664-10.45-11.817V3.81C70.999 1.758 70.414 0 68.07 0H47.464c-1.367 0-2.54 1.758-2.54 3.809v99.605c0 18.75 16.895 33.887 36.426 33.887 19.532 0 36.52-15.137 36.52-33.887V3.906c0-1.953-.977-3.906-3.121-3.906H94.925C92.874 0 91.8 1.855 91.8 3.906zM200.04 135.152c1.758 0 2.734-1.172 2.734-3.515v-16.7c0-2.343-.976-3.32-2.734-3.32h-33.008V3.81c0-2.344-.977-3.809-3.223-3.809h-19.531c-2.148 0-3.223 1.465-3.223 3.809V131.44c0 2.344 1.075 3.711 3.32 3.711Zm0 0"/></g><g clip-path="url(#a)" style="fill:#fff" transform="matrix(.76905 0 0 .92317 -22.516 -103.5)"><path d="M66.056 167.12h243.261v40.267H66.056z" style="fill:#fff;fill-opacity:1;stroke-width:.387879"/></g><path d="M203.637 66.73c0-.554.344-1.054.941-1.054.59 0 .93.5.93 1.054v4.227h-1.871Zm4.219-.132c0-1.688-1.531-3.047-3.285-3.047-1.758 0-3.278 1.36-3.278 3.047v8.96c0 .188.094.344.227.344h1.855c.211 0 .262-.148.262-.343v-2.555h1.871v2.547c0 .183.106.351.281.351h1.786c.199 0 .28-.175.28-.351zm0 0"/><path fill="none" stroke="#080b1c" stroke-width="1.5" d="M28.133 50.121h187.5M28.133 88.934h187.5"/><path d="M189.468 69.797c.93-.774 1.476-1.926 1.476-3.418V64.12c0-.156-.082-.379-.316-.379h-1.625a.393.393 0 0 0-.406.406v1.97c0 1.484-.422 2.51-1.871 2.632v-4.664c0-.211-.086-.344-.29-.344h-1.75c-.19 0-.296.133-.296.344V75.57c0 .211.097.332.297.332h1.757c.203 0 .282-.12.282-.332v-4.613c1.546.07 1.996 1.113 1.996 2.633v1.918c0 .262.191.394.394.394h1.633c.23 0 .316-.21.316-.367V73.32c0-1.554-.586-2.75-1.597-3.523zM173.655 75.902c.191 0 .281-.175.281-.351v-8.953c0-1.688-1.531-3.047-3.285-3.047-1.758 0-3.277 1.36-3.277 3.047v8.96c0 .188.093.344.226.344h1.856c.199 0 .261-.148.261-.343V66.73c0-.554.344-1.054.942-1.054.59 0 .93.5.93 1.054v8.82c0 .184.105.352.28.352ZM155.063 71.02c1.214-.399 2.12-1.407 2.12-2.875v-4.207c0-.125-.07-.196-.187-.196h-1.969c-.128 0-.191.09-.191.203v4.13c0 .554-.332 1-.941 1-.606 0-.93-.5-.93-1.052V63.93c0-.098-.078-.188-.219-.188h-1.933c-.133 0-.184.09-.184.203l-.012 4.2c0 1.433.899 2.46 2.11 2.863v4.55c0 .223.078.344.265.344h1.817c.183 0 .254-.12.254-.343ZM140.744 65.879c.148 0 .254-.106.254-.316v-1.504c0-.211-.106-.317-.254-.317h-5.613c-.149 0-.254.117-.254.328v1.493c0 .21.105.316.254.316h1.632v9.715c0 .203.106.308.258.308h1.836c.14 0 .254-.105.254-.308v-9.715zM120.845 66.73c0-.554.344-1.054.942-1.054.59 0 .93.5.93 1.054v4.227h-1.872Zm4.219-.132c0-1.688-1.531-3.047-3.285-3.047-1.758 0-3.278 1.36-3.278 3.047v8.96c0 .188.094.344.227.344h1.855c.211 0 .262-.148.262-.343v-2.555h1.871v2.547c0 .183.106.351.281.351h1.786c.199 0 .28-.175.28-.351zM108.237 75.902c.16 0 .247-.105.247-.316v-1.504c0-.21-.086-.297-.246-.297h-2.97v-9.7c0-.21-.085-.343-.288-.343h-1.758c-.192 0-.29.133-.29.344V75.57c0 .211.098.332.298.332ZM92.584 69.2a.24.24 0 0 0-.23-.247h-4.031c-.098 0-.23.098-.23.254v1.215c0 .176.16.254.222.254h4.031c.098 0 .238-.106.238-.246zm0 0"/><path d="M4.86-7.527c0 .593-.372.992-1.075.992H2.97v-3.488h.879c.605 0 1.011.402 1.011 1.035zm1.949 7.52c.238 0 .316-.212.316-.372V-1.96c0-1.754-.387-2.863-1.176-3.531.711-.473 1.254-1.196 1.254-2.238v-1.258c0-1.746-1.36-3.172-3.172-3.172H.93c-.184 0-.297.133-.297.344V-.324c0 .203.086.324.289.324H2.68c.191 0 .289-.121.289-.324v-4.403c1.203.079 1.82.79 1.82 2.485v1.84c0 .261.2.394.402.394zm0 0" style="display:inline" transform="translate(70.708 75.902)"/><path d="M59.437 69.797c.93-.774 1.477-1.926 1.477-3.418V64.12c0-.156-.082-.379-.317-.379h-1.625a.393.393 0 0 0-.406.406v1.97c0 1.484-.422 2.51-1.871 2.632v-4.664c0-.211-.086-.344-.289-.344h-1.75c-.191 0-.297.133-.297.344V75.57c0 .211.098.332.297.332h1.758c.203 0 .281-.12.281-.332v-4.613c1.547.07 1.996 1.113 1.996 2.633v1.918c0 .262.192.394.395.394h1.632c.231 0 .317-.21.317-.367V73.32c0-1.554-.586-2.75-1.598-3.523zm0 0" style="display:inline"/><path d="M41.558 72.914c0 .555-.34 1.063-.93 1.063-.597 0-.941-.508-.941-1.063v-8.828c0-.184-.05-.344-.262-.344H37.57c-.121 0-.227.16-.227.344v8.96c0 1.688 1.52 3.048 3.278 3.048 1.753 0 3.285-1.36 3.285-3.047v-8.953c0-.176-.09-.352-.282-.352H41.84c-.183 0-.281.168-.281.352zm0 0"/></svg>